<svg width="241" height="44" viewBox="0 0 241 44" fill="none" xmlns="http://www.w3.org/2000/svg">
<path d="M19.9549 34.9589L14.7854 27.5452C14.5685 27.5693 14.2432 27.5814 13.8094 27.5814H8.09769V34.9589H3.39819V9.64383H13.8094C16.0025 9.64383 17.9064 10.0055 19.5211 10.7288C21.1599 11.452 22.4131 12.4888 23.2807 13.8389C24.1483 15.189 24.5821 16.7923 24.5821 18.6488C24.5821 20.5534 24.1121 22.1929 23.1722 23.5671C22.2564 24.9414 20.9309 25.966 19.1957 26.6411L25.0159 34.9589H19.9549ZM19.8464 18.6488C19.8464 17.0334 19.3162 15.7918 18.2558 14.9238C17.1954 14.0559 15.641 13.6219 13.5925 13.6219H8.09769V23.7118H13.5925C15.641 23.7118 17.1954 23.2778 18.2558 22.4099C19.3162 21.5178 19.8464 20.2641 19.8464 18.6488ZM113.344 9.64383L102.318 34.9589H97.6907L86.6288 9.64383H91.7259L100.149 29.1726L108.644 9.64383H113.344ZM153.068 31.017V34.9589H134.089V9.64383H152.562V13.5857H138.788V20.1677H151.007V24.0373H138.788V31.017H153.068ZM221.534 9.64383H226.233V30.9808H239.464V34.9589H221.534V9.64383Z" fill="white"/>
<path d="M184.92 8.96143L188.922 11.7725L178.097 34.3154H173.549L184.92 8.96143Z" fill="white"/>
<path d="M184.92 8.96143H189.468L200.839 34.3184H196.291L184.92 8.96143Z" fill="white"/>
<path d="M187.649 28.8823C188.905 28.8823 189.923 27.8688 189.923 26.6186C189.923 25.3683 188.905 24.3548 187.649 24.3548C186.393 24.3548 185.375 25.3683 185.375 26.6186C185.375 27.8688 186.393 28.8823 187.649 28.8823Z" fill="white"/>
<path d="M59.6446 24.7123C61.1495 24.7123 62.3694 23.498 62.3694 22C62.3694 20.502 61.1495 19.2877 59.6446 19.2877C58.1396 19.2877 56.9197 20.502 56.9197 22C56.9197 23.498 58.1396 24.7123 59.6446 24.7123Z" fill="white"/>
<path d="M53.2866 9.64383H48.4424V34.9589H53.2866V9.64383Z" fill="white"/>
<path d="M67.2135 9.64383H53.2864V13.863H67.2135V9.64383Z" fill="white"/>
<path d="M67.2135 30.137H53.2864V34.9589H67.2135V30.137Z" fill="white"/>
</svg>
