<svg width="200" height="37" viewBox="0 0 200 37" fill="none"
    xmlns="http://www.w3.org/2000/svg">
    <path d="M16.7466 29L12.4546 22.85C12.2745 22.87 12.0044 22.88 11.6442 22.88H6.90189V29H3V8H11.6442C13.4651 8 15.0458 8.3 16.3865 8.9C17.7471 9.5 18.7876 10.36 19.508 11.48C20.2283 12.6 20.5885 13.93 20.5885 15.47C20.5885 17.05 20.1983 18.41 19.4179 19.55C18.6576 20.69 17.557 21.54 16.1163 22.1L20.9487 29H16.7466ZM16.6566 15.47C16.6566 14.13 16.2164 13.1 15.336 12.38C14.4556 11.66 13.1649 11.3 11.4641 11.3H6.90189V19.67H11.4641C13.1649 19.67 14.4556 19.31 15.336 18.59C16.2164 17.85 16.6566 16.81 16.6566 15.47ZM94.2854 8L85.131 29H81.2891L72.1044 8H76.3367L83.3301 24.2L90.3835 8H94.2854ZM127.267 25.73V29H111.509V8H126.847V11.27H115.411V16.73H125.556V19.94H115.411V25.73H127.267ZM184.113 8H188.015V25.7H199V29H184.113V8Z" fill="#33424B" />
    <path d="M153.759 8.28223L157.067 10.6196L148.12 29.364H144.361L153.759 8.28223Z" fill="#33424B" />
    <path d="M153.759 8.28223H157.519L166.917 29.3665H163.158L153.759 8.28223Z" fill="#33424B" />
    <path d="M156.015 24.8466C157.053 24.8466 157.895 24.0039 157.895 22.9643C157.895 21.9248 157.053 21.082 156.015 21.082C154.977 21.082 154.135 21.9248 154.135 22.9643C154.135 24.0039 154.977 24.8466 156.015 24.8466Z" fill="#33424B" />
    <path d="M48.8721 21.082C50.1179 21.082 51.1277 20.0707 51.1277 18.8232C51.1277 17.5757 50.1179 16.5645 48.8721 16.5645C47.6263 16.5645 46.6165 17.5757 46.6165 18.8232C46.6165 20.0707 47.6263 21.082 48.8721 21.082Z" fill="#33424B" />
    <path d="M43.609 8.28223H39.8496V29.364H43.609V8.28223Z" fill="#33424B" />
    <path d="M54.8871 8.28223H43.6089V12.0468H54.8871V8.28223Z" fill="#33424B" />
    <path d="M54.8871 25.5991H43.6089V29.3637H54.8871V25.5991Z" fill="#33424B" />
</svg>