<svg width="100" height="30" viewBox="0 0 100 30" fill="none" xmlns="http://www.w3.org/2000/svg">
<path d="M8.37332 14.5L6.22729 11.425C6.13724 11.435 6.00218 11.44 5.82209 11.44H3.45094V14.5H1.5V4H5.82209C6.73254 4 7.5229 4.15 8.19324 4.45C8.87355 4.75 9.39382 5.18001 9.75399 5.74C10.1142 6.29999 10.2943 6.96501 10.2943 7.735C10.2943 8.52501 10.0992 9.205 9.70897 9.775C9.3288 10.345 8.77852 10.77 8.05817 11.05L10.4743 14.5H8.37332ZM8.3283 7.735C8.3283 7.06499 8.10818 6.55 7.66798 6.19C7.22778 5.83 6.58247 5.65 5.73205 5.65H3.45094V9.835H5.73205C6.58247 9.835 7.22778 9.655 7.66798 9.295C8.10818 8.92499 8.3283 8.40501 8.3283 7.735ZM47.1427 4L42.5655 14.5H40.6446L36.0522 4H38.1684L41.665 12.1L45.1917 4H47.1427ZM63.6334 12.865V14.5H55.7546V4H63.4233V5.635H57.7055V8.365H62.778V9.97H57.7055V12.865H63.6334ZM92.0564 4H94.0073V12.85H99.5V14.5H92.0564V4Z" fill="white"/>
<path d="M76.8797 4.14107L78.5334 5.30975L74.0601 14.682H72.1804L76.8797 4.14107Z" fill="white"/>
<path d="M76.8796 4.14107H78.7593L83.4586 14.6832H81.5789L76.8796 4.14107Z" fill="white"/>
<path d="M78.0075 12.4232C78.5266 12.4232 78.9473 12.0019 78.9473 11.4821C78.9473 10.9623 78.5266 10.5409 78.0075 10.5409C77.4884 10.5409 77.0676 10.9623 77.0676 11.4821C77.0676 12.0019 77.4884 12.4232 78.0075 12.4232Z" fill="white"/>
<path d="M24.4362 10.5409C25.059 10.5409 25.564 10.0353 25.564 9.41152C25.564 8.78778 25.059 8.28214 24.4362 8.28214C23.8133 8.28214 23.3083 8.78778 23.3083 9.41152C23.3083 10.0353 23.8133 10.5409 24.4362 10.5409Z" fill="white"/>
<path d="M21.8045 4.14107H19.9248V14.682H21.8045V4.14107Z" fill="white"/>
<path d="M27.4435 4.14107H21.8044V6.02337H27.4435V4.14107Z" fill="white"/>
<path d="M27.4435 12.7997H21.8044V14.682H27.4435V12.7997Z" fill="white"/></svg>
