<svg width="16" height="17" viewBox="0 0 16 17" fill="none" xmlns="http://www.w3.org/2000/svg">
<path d="M13.6483 1.19951H11.2258V0.599512C11.2258 0.440382 11.1633 0.287769 11.0519 0.175248C10.9406 0.0627258 10.7896 -0.000488281 10.6321 -0.000488281C10.4746 -0.000488281 10.3236 0.0627258 10.2122 0.175248C10.1009 0.287769 10.0383 0.440382 10.0383 0.599512V1.19951H5.19333V0.599512C5.19333 0.440382 5.13078 0.287769 5.01943 0.175248C4.90808 0.0627258 4.75705 -0.000488281 4.59958 -0.000488281C4.44211 -0.000488281 4.29109 0.0627258 4.17974 0.175248C4.06839 0.287769 4.00583 0.440382 4.00583 0.599512V1.19951H1.58333C1.16341 1.19951 0.76068 1.36808 0.463748 1.66814C0.166815 1.9682 0 2.37517 0 2.79951V14.7995C0 15.2239 0.166815 15.6308 0.463748 15.9309C0.76068 16.2309 1.16341 16.3995 1.58333 16.3995H13.6483C14.0683 16.3995 14.471 16.2309 14.7679 15.9309C15.0649 15.6308 15.2317 15.2239 15.2317 14.7995V2.79951C15.2317 2.37517 15.0649 1.9682 14.7679 1.66814C14.471 1.36808 14.0683 1.19951 13.6483 1.19951ZM1.17167 2.79951C1.17576 2.69198 1.22094 2.59023 1.2977 2.51565C1.37446 2.44106 1.47684 2.39943 1.58333 2.39951H4.00583V2.99951C4.00583 3.15864 4.06839 3.31125 4.17974 3.42378C4.29109 3.5363 4.44211 3.59951 4.59958 3.59951C4.75705 3.59951 4.90808 3.5363 5.01943 3.42378C5.13078 3.31125 5.19333 3.15864 5.19333 2.99951V2.39951H10.0383V2.99951C10.0383 3.15864 10.1009 3.31125 10.2122 3.42378C10.3236 3.5363 10.4746 3.59951 10.6321 3.59951C10.7896 3.59951 10.9406 3.5363 11.0519 3.42378C11.1633 3.31125 11.2258 3.15864 11.2258 2.99951V2.39951H13.6483C13.7548 2.39943 13.8572 2.44106 13.934 2.51565C14.0107 2.59023 14.0559 2.69198 14.06 2.79951V7.19951H1.17167V2.79951ZM13.6483 15.1995H1.58333C1.47684 15.1996 1.37446 15.158 1.2977 15.0834C1.22094 15.0088 1.17576 14.907 1.17167 14.7995V8.39951H14.06V14.7995C14.0559 14.907 14.0107 15.0088 13.934 15.0834C13.8572 15.158 13.7548 15.1996 13.6483 15.1995Z" fill="#ADADAD"/>
</svg>
