<svg width="266" height="49" viewBox="0 0 266 49" fill="none" xmlns="http://www.w3.org/2000/svg">
<path d="M22.08 39L16.36 30.8C16.12 30.8267 15.76 30.84 15.28 30.84H8.96V39H3.76V11H15.28C17.7067 11 19.8133 11.4 21.6 12.2C23.4133 13 24.8 14.1467 25.76 15.64C26.72 17.1333 27.2 18.9067 27.2 20.96C27.2 23.0667 26.68 24.88 25.64 26.4C24.6267 27.92 23.16 29.0533 21.24 29.8L27.68 39H22.08ZM21.96 20.96C21.96 19.1733 21.3733 17.8 20.2 16.84C19.0267 15.88 17.3067 15.4 15.04 15.4H8.96V26.56H15.04C17.3067 26.56 19.0267 26.08 20.2 25.12C21.3733 24.1333 21.96 22.7467 21.96 20.96ZM125.415 11L113.215 39H108.095L95.8547 11H101.495L110.815 32.6L120.215 11H125.415ZM169.369 34.64V39H148.369V11H168.809V15.36H153.569V22.64H167.089V26.92H153.569V34.64H169.369ZM245.127 11H250.327V34.6H264.967V39H245.127V11Z" fill="#2980B9"/>
<path d="M204.5 11L208.899 14.1044L197 39L192 39L204.5 11Z" fill="#2980B9"/>
<path d="M204.5 11L209.5 11L222 39.0033L217 39.0033L204.5 11Z" fill="#2980B9"/>
<circle cx="207.5" cy="30.5" r="2.5" fill="#2980B9"/>
<circle cx="65" cy="25" r="3" fill="#2980B9"/>
<rect x="53" y="11" width="5" height="28" fill="#2980B9"/>
<rect x="58" y="11" width="15" height="5" fill="#2980B9"/>
<rect x="58" y="34" width="15" height="5" fill="#2980B9"/>
</svg>
